<svg width="20" height="20" viewBox="0 0 20 20" fill="none" xmlns="http://www.w3.org/2000/svg">
<path d="M14.6881 18.3775L4.83625 12.6944L3.75 10L15.625 2.8125L17.5 4.6875V16.7537C17.5 18.1969 15.9381 19.0987 14.6881 18.3775Z" fill="url(#paint0_radial_66_24)"/>
<path d="M14.6881 18.3775L4.83625 12.6944L3.75 10L15.625 2.8125L17.5 4.6875V16.7537C17.5 18.1969 15.9381 19.0987 14.6881 18.3775Z" fill="url(#paint1_linear_66_24)"/>
<path d="M14.6881 18.3775L4.83625 12.6944L3.75 10L15.625 2.8125L17.5 4.6875V16.7537C17.5 18.1969 15.9381 19.0987 14.6881 18.3775Z" fill="url(#paint2_linear_66_24)"/>
<path d="M17.5 5.01253C12.0987 5.23441 7.43435 8.31191 4.97685 12.775L2.90185 11.5782C1.99435 11.0544 1.6856 9.88066 2.30935 9.03816C6.48997 3.39753 12.5381 1.67941 15.5881 1.16003C16.63 0.982532 17.5 1.81128 17.5 2.86878V5.01253Z" fill="url(#paint3_radial_66_24)"/>
<path d="M17.5 5.01253C12.0987 5.23441 7.43435 8.31191 4.97685 12.775L2.90185 11.5782C1.99435 11.0544 1.6856 9.88066 2.30935 9.03816C6.48997 3.39753 12.5381 1.67941 15.5881 1.16003C16.63 0.982532 17.5 1.81128 17.5 2.86878V5.01253Z" fill="url(#paint4_linear_66_24)"/>
<path d="M17.5 5.01253C12.0987 5.23441 7.43435 8.31191 4.97685 12.775L2.90185 11.5782C1.99435 11.0544 1.6856 9.88066 2.30935 9.03816C6.48997 3.39753 12.5381 1.67941 15.5881 1.16003C16.63 0.982532 17.5 1.81128 17.5 2.86878V5.01253Z" fill="url(#paint5_radial_66_24)"/>
<path d="M16.25 9.0625C16.25 9.64266 16.0195 10.1991 15.6093 10.6093C15.1991 11.0195 14.6427 11.25 14.0625 11.25C13.4823 11.25 12.9259 11.0195 12.5157 10.6093C12.1055 10.1991 11.875 9.64266 11.875 9.0625C11.875 8.48234 12.1055 7.92594 12.5157 7.5157C12.9259 7.10547 13.4823 6.875 14.0625 6.875C14.6427 6.875 15.1991 7.10547 15.6093 7.5157C16.0195 7.92594 16.25 8.48234 16.25 9.0625Z" fill="url(#paint6_radial_66_24)"/>
<path d="M16.25 9.0625C16.25 9.64266 16.0195 10.1991 15.6093 10.6093C15.1991 11.0195 14.6427 11.25 14.0625 11.25C13.4823 11.25 12.9259 11.0195 12.5157 10.6093C12.1055 10.1991 11.875 9.64266 11.875 9.0625C11.875 8.48234 12.1055 7.92594 12.5157 7.5157C12.9259 7.10547 13.4823 6.875 14.0625 6.875C14.6427 6.875 15.1991 7.10547 15.6093 7.5157C16.0195 7.92594 16.25 8.48234 16.25 9.0625Z" fill="url(#paint7_radial_66_24)"/>
<path d="M14.375 15.625C14.7065 15.625 15.0245 15.4933 15.2589 15.2589C15.4933 15.0245 15.625 14.7065 15.625 14.375C15.625 14.0435 15.4933 13.7255 15.2589 13.4911C15.0245 13.2567 14.7065 13.125 14.375 13.125C14.0435 13.125 13.7255 13.2567 13.4911 13.4911C13.2567 13.7255 13.125 14.0435 13.125 14.375C13.125 14.7065 13.2567 15.0245 13.4911 15.2589C13.7255 15.4933 14.0435 15.625 14.375 15.625Z" fill="url(#paint8_radial_66_24)"/>
<path d="M14.375 15.625C14.7065 15.625 15.0245 15.4933 15.2589 15.2589C15.4933 15.0245 15.625 14.7065 15.625 14.375C15.625 14.0435 15.4933 13.7255 15.2589 13.4911C15.0245 13.2567 14.7065 13.125 14.375 13.125C14.0435 13.125 13.7255 13.2567 13.4911 13.4911C13.2567 13.7255 13.125 14.0435 13.125 14.375C13.125 14.7065 13.2567 15.0245 13.4911 15.2589C13.7255 15.4933 14.0435 15.625 14.375 15.625Z" fill="url(#paint9_radial_66_24)"/>
<path d="M11.25 12.8125C11.25 13.2269 11.0854 13.6243 10.7924 13.9174C10.4993 14.2104 10.1019 14.375 9.6875 14.375C9.2731 14.375 8.87567 14.2104 8.58265 13.9174C8.28962 13.6243 8.125 13.2269 8.125 12.8125C8.125 12.3981 8.28962 12.0007 8.58265 11.7076C8.87567 11.4146 9.2731 11.25 9.6875 11.25C10.1019 11.25 10.4993 11.4146 10.7924 11.7076C11.0854 12.0007 11.25 12.3981 11.25 12.8125Z" fill="#FF3478"/>
<path d="M11.25 12.8125C11.25 13.2269 11.0854 13.6243 10.7924 13.9174C10.4993 14.2104 10.1019 14.375 9.6875 14.375C9.2731 14.375 8.87567 14.2104 8.58265 13.9174C8.28962 13.6243 8.125 13.2269 8.125 12.8125C8.125 12.3981 8.28962 12.0007 8.58265 11.7076C8.87567 11.4146 9.2731 11.25 9.6875 11.25C10.1019 11.25 10.4993 11.4146 10.7924 11.7076C11.0854 12.0007 11.25 12.3981 11.25 12.8125Z" fill="url(#paint10_radial_66_24)"/>
<path d="M11.25 12.8125C11.25 13.2269 11.0854 13.6243 10.7924 13.9174C10.4993 14.2104 10.1019 14.375 9.6875 14.375C9.2731 14.375 8.87567 14.2104 8.58265 13.9174C8.28962 13.6243 8.125 13.2269 8.125 12.8125C8.125 12.3981 8.28962 12.0007 8.58265 11.7076C8.87567 11.4146 9.2731 11.25 9.6875 11.25C10.1019 11.25 10.4993 11.4146 10.7924 11.7076C11.0854 12.0007 11.25 12.3981 11.25 12.8125Z" fill="url(#paint11_radial_66_24)"/>
<defs>
<radialGradient id="paint0_radial_66_24" cx="0" cy="0" r="1" gradientUnits="userSpaceOnUse" gradientTransform="translate(15.8206 9.84375) rotate(128.873) scale(9.83413 8.548)">
<stop stop-color="#FFE657"/>
<stop offset="1" stop-color="#FFC547"/>
</radialGradient>
<linearGradient id="paint1_linear_66_24" x1="8.125" y1="15.2344" x2="9.64875" y2="12.8125" gradientUnits="userSpaceOnUse">
<stop offset="0.231" stop-color="#EA9352"/>
<stop offset="0.787" stop-color="#EA9353" stop-opacity="0"/>
</linearGradient>
<linearGradient id="paint2_linear_66_24" x1="17.5" y1="9.57063" x2="16.68" y2="9.57063" gradientUnits="userSpaceOnUse">
<stop offset="0.238" stop-color="#F5C344"/>
<stop offset="0.81" stop-color="#FFD059" stop-opacity="0"/>
</linearGradient>
<radialGradient id="paint3_radial_66_24" cx="0" cy="0" r="1" gradientUnits="userSpaceOnUse" gradientTransform="translate(12.4218 9.45329) rotate(145.566) scale(21.6915 11.4378)">
<stop offset="0.278" stop-color="#FFA060"/>
<stop offset="0.39" stop-color="#FFC48A"/>
<stop offset="0.455" stop-color="#FFC888"/>
<stop offset="0.623" stop-color="#E4AF7C"/>
</radialGradient>
<linearGradient id="paint4_linear_66_24" x1="3.12497" y1="11.875" x2="5.0781" y2="9.21878" gradientUnits="userSpaceOnUse">
<stop stop-color="#E79786"/>
<stop offset="0.783" stop-color="#EA8F85" stop-opacity="0"/>
</linearGradient>
<radialGradient id="paint5_radial_66_24" cx="0" cy="0" r="1" gradientUnits="userSpaceOnUse" gradientTransform="translate(16.7969 2.77378) rotate(81.0851) scale(2.01655 3.92968)">
<stop stop-color="#FFE498"/>
<stop offset="1" stop-color="#FFE398" stop-opacity="0"/>
</radialGradient>
<radialGradient id="paint6_radial_66_24" cx="0" cy="0" r="1" gradientUnits="userSpaceOnUse" gradientTransform="translate(15.1561 8.55528) rotate(137.626) scale(3.01389)">
<stop stop-color="#FF8DA2"/>
<stop offset="1" stop-color="#FF2B43"/>
</radialGradient>
<radialGradient id="paint7_radial_66_24" cx="0" cy="0" r="1" gradientUnits="userSpaceOnUse" gradientTransform="translate(13.7498 10.5081) rotate(101.611) scale(2.91114)">
<stop offset="0.393" stop-color="#F63080"/>
<stop offset="1" stop-color="#F73184" stop-opacity="0"/>
</radialGradient>
<radialGradient id="paint8_radial_66_24" cx="0" cy="0" r="1" gradientUnits="userSpaceOnUse" gradientTransform="translate(14.9999 14.0859) rotate(137.626) scale(1.72222)">
<stop stop-color="#FF8DA2"/>
<stop offset="1" stop-color="#FF2B43"/>
</radialGradient>
<radialGradient id="paint9_radial_66_24" cx="0" cy="0" r="1" gradientUnits="userSpaceOnUse" gradientTransform="translate(14.1967 15.2013) rotate(101.611) scale(1.66351)">
<stop offset="0.393" stop-color="#F63080"/>
<stop offset="1" stop-color="#F73184" stop-opacity="0"/>
</radialGradient>
<radialGradient id="paint10_radial_66_24" cx="0" cy="0" r="1" gradientUnits="userSpaceOnUse" gradientTransform="translate(10.4682 12.4499) rotate(137.626) scale(2.15278)">
<stop stop-color="#FF8DA2"/>
<stop offset="1" stop-color="#FF2B43"/>
</radialGradient>
<radialGradient id="paint11_radial_66_24" cx="0" cy="0" r="1" gradientUnits="userSpaceOnUse" gradientTransform="translate(9.46447 13.845) rotate(101.611) scale(2.07939)">
<stop offset="0.393" stop-color="#F63080"/>
<stop offset="1" stop-color="#F73184" stop-opacity="0"/>
</radialGradient>
</defs>
</svg>
